<svg xmlns="http://www.w3.org/2000/svg" xmlns:xlink="http://www.w3.org/1999/xlink" viewBox="0 0 305 69.36"><defs><style>.cls-1{fill:url(#linear-gradient);}</style><linearGradient id="linear-gradient" x1="41.24" y1="33.61" x2="262.32" y2="33.61" gradientUnits="userSpaceOnUse"><stop offset="0" stop-color="#e2432c"/><stop offset="1" stop-color="#92cac7"/></linearGradient></defs><title>announce_button</title><g id="Layer_2" data-name="Layer 2"><g id="announce_bt" data-name="announce bt"><rect width="305" height="69.36" rx="34" ry="34"/><path class="cls-1" d="M41.24,47.49l13-27.76h3.29L70.55,47.49H63.26l-1.7-3.63H50.19l-1.67,3.63ZM53,37.72h5.66L55.9,31.61Z"/><path class="cls-1" d="M94.65,47.49,81.55,34.35V47.49H74.26V19.73h3l13.14,13.1V19.73h7.29V47.49Z"/><path class="cls-1" d="M123.64,47.49l-13.1-13.14V47.49h-7.29V19.73h3l13.14,13.1V19.73h7.29V47.49Z"/><path class="cls-1" d="M143.67,19.73a13.88,13.88,0,1,1-13.84,13.92A13.92,13.92,0,0,1,143.67,19.73Zm0,7.26a6.63,6.63,0,1,0,6.63,6.63A6.61,6.61,0,0,0,143.67,27Z"/><path class="cls-1" d="M169.18,36.42a3.63,3.63,0,1,0,7.26,0V19.73h7.33V36.53a11,11,0,1,1-21.91,0V19.73h7.33Z"/><path class="cls-1" d="M209.71,47.49l-13.1-13.14V47.49h-7.29V19.73h3l13.14,13.1V19.73h7.29V47.49Z"/><path class="cls-1" d="M234.33,28.91a6.48,6.48,0,0,0-4.67-1.81,6.3,6.3,0,0,0-6.51,6.52,6.6,6.6,0,0,0,11.18,4.66l5.18,5.11a13.88,13.88,0,1,1-9.85-23.65,13.74,13.74,0,0,1,9.77,4Z"/><path class="cls-1" d="M245.07,19.73h17.25v6h-10v4.52h8.81v6.15h-8.81v5.11h10v6H245.07Z"/></g></g></svg>