<svg xmlns="http://www.w3.org/2000/svg" xmlns:xlink="http://www.w3.org/1999/xlink" viewBox="0 0 305 69.36"><defs><style>.cls-1{fill:url(#linear-gradient);}</style><linearGradient id="linear-gradient" x1="42.01" y1="33.4" x2="265.38" y2="33.4" gradientUnits="userSpaceOnUse"><stop offset="0" stop-color="#e2432c"/><stop offset="1" stop-color="#92cac7"/></linearGradient></defs><title>regisButton</title><g id="Layer_2" data-name="Layer 2"><g id="com"><rect width="305" height="69.36" rx="34" ry="34"/><path class="cls-1" d="M61,49.75,55.9,41.08H50.59v8.67H42V17.09H55.77a12,12,0,0,1,8.14,20.82l6.92,11.85ZM50.59,33.68H55.9a4.68,4.68,0,1,0,0-9.36H50.59Z"/><path class="cls-1" d="M75.06,17.09H95.36v7.1H83.64V29.5H94v7.23H83.64v6H95.36v7H75.06Z"/><path class="cls-1" d="M133.64,32.2v1.22a16.36,16.36,0,1,1-4.83-11.58l-6.05,6a7.81,7.81,0,0,0-5.44-2.18,7.75,7.75,0,1,0,6.31,12.28h-6.31V32.2Z"/><path class="cls-1" d="M138.3,17.09h8.58V49.75H138.3Z"/><path class="cls-1" d="M165.48,27.11A2.51,2.51,0,0,0,163,24.62a2.47,2.47,0,0,0-2.44,2.48A2.43,2.43,0,0,0,163,29.54,10.1,10.1,0,1,1,152.93,39.6h7.62A2.44,2.44,0,0,0,163,42.09a2.47,2.47,0,0,0,2.48-2.44A2.51,2.51,0,0,0,163,37.17a10,10,0,1,1,10.06-10.06Z"/><path class="cls-1" d="M178.46,17h25.74v8.54h-8.67V49.75h-8.58V25.58h-8.49Z"/><path class="cls-1" d="M210.12,17.09h20.29v7.1H218.7V29.5h10.36v7.23H218.7v6h11.71v7H210.12Z"/><path class="cls-1" d="M255.5,49.75l-5.05-8.67h-5.31v8.67h-8.58V17.09h13.76a12,12,0,0,1,8.14,20.82l6.92,11.85ZM245.13,33.68h5.31a4.68,4.68,0,1,0,0-9.36h-5.31Z"/></g></g></svg>