<svg xmlns="http://www.w3.org/2000/svg" xmlns:xlink="http://www.w3.org/1999/xlink" viewBox="0 0 477.25 322.26"><defs><style>.cls-1,.cls-4,.cls-5,.cls-6{fill:none;}.cls-2{fill:#ee9a14;}.cls-3{clip-path:url(#clip-path);}.cls-4,.cls-6{stroke:#ee9a14;}.cls-4,.cls-5,.cls-6{stroke-miterlimit:10;}.cls-4{stroke-width:25px;}.cls-5{stroke:#fbb03b;stroke-width:10px;}.cls-6{stroke-linecap:round;stroke-width:16px;}.cls-7{clip-path:url(#clip-path-2);}.cls-8{fill:#fbb03b;}.cls-9{clip-path:url(#clip-path-3);}.cls-10{fill:#f3b23a;}</style><clipPath id="clip-path"><rect class="cls-1" x="-21.69" y="-34.15" width="233" height="243.49" transform="translate(-20.06 28.73) rotate(-15.6)"/></clipPath><clipPath id="clip-path-2"><rect class="cls-1" x="66" y="142.28" width="433" height="27.64" transform="translate(-29.54 73.63) rotate(-14.12)"/></clipPath><clipPath id="clip-path-3"><rect class="cls-1" x="76.14" y="217.51" width="433" height="12.38" transform="translate(-45.73 78.14) rotate(-14.12)"/></clipPath></defs><g id="gear"><polygon class="cls-2" points="39.62 171.62 16.27 174.4 7.89 150.91 27.16 136.67 39.62 171.62"/><polygon class="cls-2" points="129.61 23.14 141.01 3 164.92 10.06 165.2 33.64 129.61 23.14"/><polygon class="cls-2" points="73.62 37.17 69.98 13.94 93.14 4.69 108.08 23.41 73.62 37.17"/><polygon class="cls-2" points="37.06 73.5 22.17 55.31 37.47 35.62 59.83 44.21 37.06 73.5"/><polygon class="cls-2" points="25.33 122.01 3.31 113.76 6.65 89.05 30.29 85.24 25.33 122.01"/><polygon class="cls-2" points="183.3 44.97 205.1 36.17 219.34 56.65 204.48 75.43 183.3 44.97"/><polygon class="cls-2" points="88.43 211.56 75.86 223.58 54.01 211.57 55.91 193.7 88.43 211.56"/></g><g id="Layer_16" data-name="Layer 16"><g id="Layer_17" data-name="Layer 17"><g class="cls-3"><path class="cls-4" d="M153.64,201A88.07,88.07,0,1,1,201.39,83"/></g></g></g><g id="Layer_14" data-name="Layer 14"><path class="cls-5" d="M150.13,192A79.38,79.38,0,1,1,193.37,87"/></g><g id="power"><g id="Layer_10" data-name="Layer 10"><path class="cls-6" d="M72.4,130.78c-5.28,17.87,8.76,37.74,31.38,44.42"/><path class="cls-6" d="M155.35,155.3c-5.28,17.87-30.07,26.28-55.43,18.79"/><path class="cls-6" d="M83.75,88.91C89.27,70.22,112,60.49,134.61,67.16"/><path class="cls-6" d="M168.75,114.31c5.52-18.69-10.51-39.87-35.84-47.35"/></g><g id="Layer_11" data-name="Layer 11"><line class="cls-6" x1="62.7" y1="104.87" x2="126.54" y2="123.71"/></g></g><g id="Layer_2" data-name="Layer 2"><path class="cls-2" d="M261.61,191.81,249,195.19l5.44-28.54-18.07,31.93-14,3.75-7.19-25.16-5.44,28.55-12.64,3.38L207.84,152l14-3.75,10.53,36.34,26-46.13,14-3.75Z"/><path class="cls-2" d="M329.79,139.68l-2.61,14.24-4.09,21.41-12.63,3.38,4.08-21.4-25.27,6.77-4.08,21.41-12.64,3.38L278,160.33l2.61-14.25,2.72-14.27,50.54-13.54Zm-36.54,3-1.36,7.13,25.27-6.77,1.36-7.13Z"/><path class="cls-2" d="M391.28,123.2l-2.62,14.24L365,143.79l19.6,15.06-18.95,5.08-15.75-12L346.68,169,334,172.39l4.08-21.4,2.62-14.25,4.08-21.4,50.54-13.55Zm-36.54,3-1.36,7.14,25.27-6.78,1.36-7.13Z"/><path class="cls-2" d="M454.45,99.5l-19,5.08-8.05,42.79-12.64,3.38L422.86,108,403.91,113l2.72-14.27,50.54-13.54Z"/><path class="cls-2" d="M238.6,229.46,236,243.71l-4.08,21.4-12.63,3.39,4.08-21.41-25.27,6.77L194,275.27l-12.64,3.39,5.44-28.55,2.62-14.24,2.72-14.27,50.54-13.54Zm-36.55,3-1.36,7.13L226,232.85l1.36-7.14Z"/><path class="cls-2" d="M307.39,244.88l-12.63,3.39,5.44-28.54-18.08,31.93-14,3.75-7.19-25.16-5.44,28.54-12.64,3.39,10.78-57.06,14-3.75,10.53,36.34,26-46.13,14-3.75Z"/><path class="cls-2" d="M385.18,203.73l-37.91,10.15-5.33,28.52-15.36,17.66,8.06-42.79,4.08-21.41-6.32,1.7-9.91-10.89L392,168.05Zm-33.83-11.25L350,199.61l25.27-6.77,1.36-7.13Z"/><path class="cls-2" d="M123.43,296l51.78-13.87-21,24.12-51.78,13.88,3.72-19.5,7.29-39L104.83,264,91.28,249.1l94.94-25.44-3.71,19.5L130.72,257Z"/></g><g id="Layer_8" data-name="Layer 8"><polygon class="cls-2" points="400.78 165.78 429.78 158.78 415.78 226.78 392.78 247.78 406.78 184.78 395.78 187.78 400.78 165.78"/><polygon class="cls-2" points="444.78 154.78 473.78 147.78 459.78 215.78 436.78 236.78 450.78 173.78 439.78 176.78 444.78 154.78"/><polygon class="cls-2" points="85.78 220.78 171.78 197.78 185.78 126.78 293.83 97.75 279.78 120.78 200.78 140.78 184.78 213.78 72.83 244.17 85.78 220.78"/></g><g id="Layer_19" data-name="Layer 19"><g class="cls-7"><polygon class="cls-8" points="85.78 220.78 171.78 197.78 185.78 126.78 293.83 97.75 279.78 120.78 200.78 140.78 184.78 213.78 72.83 244.17 85.78 220.78"/><path class="cls-8" d="M261.61,191.81,249,195.19l5.44-28.54-18.07,31.93-14,3.75-7.19-25.16-5.44,28.55-12.64,3.38L207.84,152l14-3.75,10.53,36.34,26-46.13,14-3.75Z"/><path class="cls-8" d="M329.79,139.68l-2.61,14.24-4.09,21.41-12.63,3.38,4.08-21.4-25.27,6.77-4.08,21.41-12.64,3.38L278,160.33l2.61-14.25,2.72-14.27,50.54-13.54Zm-36.54,3-1.36,7.13,25.27-6.77,1.36-7.13Z"/><path class="cls-8" d="M391.28,123.2l-2.62,14.24L365,143.79l19.6,15.06-18.95,5.08-15.75-12L346.68,169,334,172.39l4.08-21.4,2.62-14.25,4.08-21.4,50.54-13.55Zm-36.54,3-1.36,7.14,25.27-6.78,1.36-7.13Z"/><path class="cls-8" d="M454.45,99.5l-19,5.08-8.05,42.79-12.64,3.38L422.86,108,403.91,113l2.72-14.27,50.54-13.54Z"/></g></g><g id="Layer_20" data-name="Layer 20"><g class="cls-9"><path class="cls-8" d="M238.6,229.46,236,243.71l-4.08,21.4-12.63,3.39,4.08-21.41-25.27,6.77L194,275.27l-12.64,3.39,5.44-28.55,2.62-14.24,2.72-14.27,50.54-13.54Zm-36.55,3-1.36,7.13L226,232.85l1.36-7.14Z"/><path class="cls-8" d="M307.39,244.88l-12.63,3.39,5.44-28.54-18.08,31.93-14,3.75-7.19-25.16-5.44,28.54-12.64,3.39,10.78-57.06,14-3.75,10.53,36.34,26-46.13,14-3.75Z"/><path class="cls-8" d="M385.18,203.73l-37.91,10.15-5.33,28.52-15.36,17.66,8.06-42.79,4.08-21.41-6.32,1.7-9.91-10.89L392,168.05Zm-33.83-11.25L350,199.61l25.27-6.77,1.36-7.13Z"/><polygon class="cls-10" points="400.78 165.78 429.78 158.78 415.78 226.78 392.78 247.78 406.78 184.78 395.78 187.78 400.78 165.78"/><polygon class="cls-10" points="444.78 154.78 473.78 147.78 459.78 215.78 436.78 236.78 450.78 173.78 439.78 176.78 444.78 154.78"/><path class="cls-8" d="M123.43,296l51.78-13.87-21,24.12-51.78,13.88,3.72-19.5,7.29-39L104.83,264,91.28,249.1l94.94-25.44-3.71,19.5L130.72,257Z"/></g></g></svg>