<svg xmlns="http://www.w3.org/2000/svg" viewBox="0 0 82 82"><defs><style>.cls-1{fill:#89cdc8;}.cls-2{fill:#feecd3;fill-rule:evenodd;}.cls-3{fill:#d7000c;}</style></defs><title>ans</title><g id="Layer_2" data-name="Layer 2"><g id="Layer_15" data-name="Layer 15"><g id="Layer_22" data-name="Layer 22"><path class="cls-1" d="M30,63.83a22.54,22.54,0,0,1-5.45,14.73A41,41,0,0,1,0,42.38a22.37,22.37,0,0,1,7.31-1.21A22.66,22.66,0,0,1,30,63.83Z"/><circle cx="52.69" cy="29.69" r="4.31"/><path class="cls-1" d="M78.33,41.17a22.17,22.17,0,0,1,3.67.3A41,41,0,0,1,60.09,77.28,22.66,22.66,0,0,1,78.33,41.17Z"/><path class="cls-2" d="M82,41v.47a22.17,22.17,0,0,0-3.67-.3A22.66,22.66,0,0,0,60.09,77.28a41,41,0,0,1-35.54,1.28A22.54,22.54,0,0,0,30,63.83,22.66,22.66,0,0,0,7.33,41.17,22.37,22.37,0,0,0,0,42.38c0-.46,0-.92,0-1.38A41,41,0,0,1,1.46,30.13a53,53,0,0,0,17.65-1.71C31.51,25.12,41.39,18,46.5,9.76c0,.19.09.37.14.56C49.78,22.11,63.67,29.07,80,28.2A41,41,0,0,1,82,41ZM57,29.69A4.31,4.31,0,1,0,52.69,34,4.31,4.31,0,0,0,57,29.69Zm-22.38,0A4.31,4.31,0,1,0,30.31,34,4.31,4.31,0,0,0,34.62,29.69Z"/><path class="cls-3" d="M46.5,9.76c-5.11,8.26-15,15.36-27.39,18.66A53,53,0,0,1,1.46,30.13,41,41,0,0,1,41,0a41.51,41.51,0,0,1,5.61.38C47.76.54,48.89.74,50,1A41.08,41.08,0,0,1,80,28.2c-16.29.87-30.18-6.09-33.32-17.88C46.59,10.13,46.54,10,46.5,9.76Z"/><circle cx="30.31" cy="29.69" r="4.31"/></g></g></g></svg>