<svg xmlns="http://www.w3.org/2000/svg" viewBox="0 0 78 78"><defs><style>.cls-1{fill:#89cdc8;}.cls-2{fill:#d7000c;}.cls-3{fill:#feecd3;fill-rule:evenodd;}</style></defs><title>ask</title><g id="Layer_2" data-name="Layer 2"><g id="Layer_15" data-name="Layer 15"><path class="cls-1" d="M0,38.5A39,39,0,1,1,76.4,50.08H68.51V38.5H10.21V50.08H1.6A39,39,0,0,1,0,39Z"/><path class="cls-2" d="M25,65.94a13.63,13.63,0,0,1-2.79,8.28A39.23,39.23,0,0,1,3.34,54.82,13.68,13.68,0,0,1,25,65.94Z"/><circle cx="27.81" cy="49.19" r="4.31"/><circle cx="50.19" cy="49.19" r="4.31"/><path class="cls-2" d="M68.31,52.25A13.65,13.65,0,0,1,75,54,39.18,39.18,0,0,1,57,73.62,13.69,13.69,0,0,1,68.31,52.25Z"/><path class="cls-3" d="M68.51,50.08H76.4A37.15,37.15,0,0,1,75,54,13.69,13.69,0,0,0,57,73.62a39.13,39.13,0,0,1-34.77.6A13.68,13.68,0,0,0,3.34,54.82,38.29,38.29,0,0,1,1.6,50.08h8.61V38.5h58.3Zm-14-.89a4.31,4.31,0,1,0-4.31,4.31A4.31,4.31,0,0,0,54.5,49.19Zm-22.38,0a4.31,4.31,0,1,0-4.31,4.31A4.31,4.31,0,0,0,32.12,49.19Z"/></g></g></svg>